<svg width="216" height="336" viewBox="0 0 216 336" fill="none" xmlns="http://www.w3.org/2000/svg">
<path d="M90.5336 12.1989C90.5336 12.1989 77.8877 3.80143 69.2373 7.84562C60.5869 11.8898 67.5742 17.3998 67.5742 17.3998C67.5742 17.3998 60.9317 17.9738 61.9256 19.7133C62.4752 20.6389 62.9201 21.6089 63.2541 22.6096C63.2541 22.6096 46.6328 25.2586 47.3021 29.2675C47.9714 33.2763 48.9652 33.603 48.9652 33.603C48.9652 33.603 39.9904 35.9254 41.3188 39.1042C42.6473 42.283 49.2898 43.1572 49.2898 43.1572C49.2898 43.1572 34.3316 50.9719 32.0499 60.526C29.7681 70.0802 35.7007 68.0493 35.7007 68.0493C35.7007 68.0493 26.4013 74.9986 30.3867 78.7602C34.3722 82.5218 38.6923 81.4092 38.6923 81.4092C38.6923 81.4092 33.3784 91.8288 35.7007 94.1423C38.023 96.4557 40.3554 96.1732 40.3554 96.1732C40.3554 96.1732 23.1156 105.436 30.3867 112.067C37.6579 118.699 43.6817 112.067 43.6817 112.067C43.6817 112.067 37.6985 123.352 44.351 124.8C51.0036 126.249 52.322 125.374 52.322 125.374C52.322 125.374 45.0102 131.75 57.9807 133.48C70.9511 135.211 71.9348 133.48 71.9348 133.48C71.9348 133.48 68.6187 138.69 74.2673 141.012C79.9159 143.335 83.9013 137.533 83.9013 137.533C83.9013 137.533 85.5645 140.721 93.2109 140.43C100.857 140.138 102.52 136.959 102.52 136.959C102.52 136.959 106.84 144.191 112.165 141.586C117.489 138.982 118.472 136.668 118.472 136.668C119.559 137.577 120.887 138.237 122.338 138.589C123.789 138.942 125.318 138.977 126.788 138.69L132.102 137.807C132.102 137.807 138.085 140.995 143.075 138.964C148.064 136.933 147.07 133.754 147.07 133.754C147.07 133.754 152.719 136.942 156.704 135.202C160.69 133.463 160.69 131.441 160.69 131.441C160.69 131.441 166.014 133.463 168.336 129.993C169.019 129.047 169.409 127.963 169.467 126.848C169.526 125.732 169.252 124.622 168.671 123.626C168.671 123.626 174.989 123.917 175.323 122.469C175.658 121.021 171.662 117.542 171.662 117.542C171.662 117.542 179.978 124.2 178.974 114.363C178.442 108.593 176.02 103.077 171.997 98.469C171.997 98.469 176.987 100.235 177.311 97.586C177.568 96.2081 177.338 94.7946 176.652 93.533C176.652 93.533 182.97 94.6897 185.292 86.8751C185.972 84.6905 185.858 82.376 184.964 80.2505C184.071 78.125 182.442 76.2932 180.303 75.0074C180.303 75.0074 187.949 71.2458 186.955 68.3495C185.961 65.4532 184.633 64.5879 184.633 64.5879C184.633 64.5879 189.612 61.6916 185.961 59.6695C183.249 58.2842 180.341 57.2126 177.311 56.4819C177.311 56.4819 186.621 56.1905 183.629 48.0844C180.637 39.9784 170.669 33.3293 168.336 32.4551C166.004 31.581 177.646 29.2763 169.665 27.5368C161.684 25.7972 159.361 25.7707 159.361 25.7707C159.361 25.7707 166.348 20.561 160.69 18.2475C155.031 15.934 152.394 17.1172 152.394 17.1172C152.394 17.1172 154.423 12.7728 148.074 12.4814C141.726 12.19 138.095 14.5124 138.095 14.5124C138.095 14.5124 140.763 4.09282 135.104 1.77934C129.445 -0.534153 120.105 9.61164 120.105 9.61164C120.105 9.61164 115.45 0.922817 112.459 3.5277C109.467 6.13258 109.467 8.16351 109.467 8.16351C109.467 8.16351 97.5006 -2.25602 93.1804 3.24514C88.8603 8.74629 90.5336 12.1989 90.5336 12.1989Z" fill="#272D2F" stroke="#272D2F" stroke-linecap="round" stroke-linejoin="round"/>
<path d="M194.652 214.179C194.652 214.179 205.138 245.746 207.836 251.265C210.533 256.784 209.519 262.153 197.695 265.093C185.87 268.034 178.082 261.27 175.719 252.731C173.356 244.192 162.201 218.002 162.201 218.002L194.652 214.179Z" fill="white" stroke="#272D2F" stroke-width="2" stroke-linecap="round" stroke-linejoin="round"/>
<path d="M194.652 214.179L162.201 218.002C162.201 218.002 163.752 221.649 165.821 226.673L198.029 224.28C196.092 218.532 194.652 214.179 194.652 214.179Z" fill="#272D2F" stroke="#272D2F" stroke-linecap="round" stroke-linejoin="round"/>
<path d="M22.9231 214.179C22.9231 214.179 3.4826 259.654 5.09503 265.173C6.70747 270.692 18.1973 277.164 31.036 274.806C43.8746 272.449 47.9412 253.031 48.6206 251.265C49.3001 249.499 59.431 217.119 59.431 217.119L22.9231 214.179Z" fill="white" stroke="#272D2F" stroke-width="2" stroke-linecap="round" stroke-linejoin="round"/>
<path d="M59.4311 217.119L22.9232 214.179C22.9232 214.179 20.8138 219.106 18.0453 225.923L53.4884 236.051C56.3584 226.938 59.4311 217.119 59.4311 217.119Z" fill="#272D2F" stroke="#272D2F" stroke-linecap="round" stroke-linejoin="round"/>
<path d="M90.5339 110.61C90.5339 110.61 90.8685 131.158 88.5056 137.525C86.1428 143.891 78.2226 146.478 78.2226 146.478C78.2226 146.478 44.98 140.112 38.3376 144.712C31.6952 149.313 26.0365 171.053 25.0325 174.523C24.0285 177.993 7.08276 219.097 7.08276 219.097C7.08276 219.097 21.047 221.993 31.0157 224.307C40.9845 226.62 53.3262 228.36 53.3262 228.36L57.6463 263.38L40.6904 307.955H178.609L156.664 258.17L161.319 222.85L208.171 216.837C208.171 216.837 187.888 171.388 182.24 160.395C176.591 149.401 171.663 142.16 161.664 142.443C151.664 142.725 143.41 146.213 139.059 147.37C136.817 148.054 134.444 148.354 132.072 148.253C129.977 146.609 128.304 144.6 127.159 142.356C126.015 140.112 125.425 137.684 125.429 135.229C125.429 126.831 125.095 119.335 125.095 119.335C118.963 120.683 112.53 120.586 106.456 119.052C100.382 117.519 94.8863 114.605 90.5339 110.61V110.61Z" fill="#FFC529" stroke="#272D2F" stroke-linecap="round" stroke-linejoin="round"/>
<path d="M112.844 181.799C136.301 179.362 164.564 164.721 179.846 155.882C175.08 147.467 170.192 142.196 161.663 142.443C151.685 142.734 143.409 146.213 139.059 147.37C136.817 148.054 134.444 148.354 132.072 148.253C129.977 146.609 128.303 144.6 127.159 142.356C126.015 140.112 125.425 137.684 125.429 135.229C125.429 126.831 125.095 119.335 125.095 119.335C118.963 120.683 112.53 120.586 106.456 119.052C100.382 117.519 94.8862 114.605 90.5338 110.61C90.5338 110.61 90.8684 131.158 88.5055 137.525C86.1427 143.891 78.2225 146.478 78.2225 146.478C78.2225 146.478 44.9799 140.112 38.3375 144.712C36.2383 146.169 34.2811 149.322 32.4658 153.057C47.9411 162.752 86.2745 184.563 112.844 181.799Z" fill="white" stroke="#272D2F" stroke-width="2" stroke-linecap="round" stroke-linejoin="round"/>
<path d="M89.1951 114.822C89.1951 114.822 105.309 132.483 111.069 133.198C116.83 133.913 126.798 121.498 126.798 121.498C126.798 121.498 104.163 126.849 89.1951 114.822Z" fill="#272D2F" stroke="#272D2F" stroke-linecap="round" stroke-linejoin="round"/>
<path d="M73.2329 100.765C73.2329 100.765 73.9022 103.953 76.2752 105.109C78.6483 106.266 82.583 105.109 82.583 105.109C82.583 105.109 88.2417 115.237 96.2127 120.12C104.184 125.004 109.508 129.101 118.158 127.07C126.808 125.039 134.445 114.911 138.44 109.701C141.435 105.729 143.576 101.316 144.758 96.6765C145.427 94.0717 145.427 80.1819 143.744 71.493C142.061 62.8042 132.437 51.2368 126.453 47.1837C120.47 43.1307 114.487 41.3912 104.518 46.3007C94.5495 51.2103 85.5645 59.3251 79.9159 72.641C74.2673 85.9568 73.2329 92.9502 73.2329 100.765Z" fill="white" stroke="#272D2F" stroke-linecap="round" stroke-linejoin="round"/>
<path d="M106.151 79.6342C106.151 79.6342 101.162 75.8726 94.8439 79.9256" stroke="#272D2F" stroke-width="2" stroke-linecap="round" stroke-linejoin="round"/>
<path d="M123.766 77.9037C123.766 77.9037 130.084 75.0074 134.07 78.1862" stroke="#272D2F" stroke-width="2" stroke-linecap="round" stroke-linejoin="round"/>
<path d="M107.48 66.3186C107.48 66.3186 98.8294 62.5923 91.5481 71.2458" stroke="#272D2F" stroke-width="2" stroke-linecap="round" stroke-linejoin="round"/>
<path d="M121.768 65.7447C121.768 65.7447 130.084 61.1088 134.404 68.9235" stroke="#272D2F" stroke-width="2" stroke-linecap="round" stroke-linejoin="round"/>
<path d="M123.766 81.9565C123.766 81.9565 124.425 85.7182 118.777 87.7403" stroke="#272D2F" stroke-linecap="round" stroke-linejoin="round"/>
<path d="M103.819 88.8972C103.819 88.8972 103.819 96.4205 99.4987 99.6082" stroke="#272D2F" stroke-linecap="round" stroke-linejoin="round"/>
<path d="M103.819 93.4977C107.446 95.105 111.396 96.0855 115.451 96.3851C122.438 96.9679 126.089 94.9458 128.421 92.3409" stroke="#272D2F" stroke-width="2" stroke-linecap="round" stroke-linejoin="round"/>
<path d="M119.781 47.5104C119.781 47.5104 131.078 49.5325 137.021 64.5878C141.347 75.5933 143.7 87.1134 143.998 98.7427C143.998 98.7427 152.648 95.2636 150.65 79.0604C148.653 62.8571 143.998 54.1683 136.686 48.6671C129.374 43.166 122.732 41.7178 120.734 42.3006C118.736 42.8834 113.798 42.8746 119.781 47.5104Z" fill="#FFC529" stroke="#272D2F" stroke-linecap="round" stroke-linejoin="round"/>
<path d="M121.768 47.8018C121.768 47.8018 111.962 46.6715 104.153 50.6892C93.2313 56.314 84.7534 68.2258 80.7679 78.354C76.7825 88.4821 73.2331 100.765 73.2331 100.765C73.2331 100.765 71.5801 95.8464 70.9108 84.8706C70.2414 73.8947 77.3605 59.4575 87.0047 51.9254C96.6489 44.3933 107.48 40.0136 114.457 40.0136C121.434 40.0136 127.092 43.7487 121.768 47.8018Z" fill="#FFC529" stroke="#272D2F" stroke-linecap="round" stroke-linejoin="round"/>
<path d="M72.9998 98.8929C72.9998 98.8929 79.4089 61.1265 92.2679 48.6407" stroke="#272D2F" stroke-linecap="round" stroke-linejoin="round"/>
<path d="M141.239 53.8947C141.239 53.8947 149.048 78.8751 144.008 98.7428" stroke="#272D2F" stroke-linecap="round" stroke-linejoin="round"/>
<path d="M132.264 138.531C131.782 139.174 131.154 139.724 130.419 140.147C126.758 142.178 126.758 138.699 126.758 138.699C126.319 139.807 125.52 140.78 124.458 141.5C123.396 142.22 122.116 142.655 120.774 142.752C116.12 143.043 116.789 140.147 116.789 140.147C116.465 141.235 115.731 142.196 114.705 142.878C113.679 143.56 112.421 143.923 111.13 143.909C106.475 143.909 108.139 141.887 108.139 141.887C108.139 141.887 103.159 143.043 100.827 140.439C100.347 139.952 100.005 139.374 99.8285 138.751C99.6523 138.129 99.6469 137.478 99.8127 136.854C99.1839 137.595 97.9974 138.205 95.8171 137.251C92.7748 135.935 93.7889 132.624 94.4379 131.07C89.4343 133.569 85.4135 137.325 82.9018 141.846C80.3902 146.368 79.5045 151.444 80.3608 156.411C81.217 161.378 83.7753 166.004 87.7009 169.684C91.6265 173.364 96.7365 175.927 102.362 177.037C107.988 178.146 113.867 177.751 119.231 175.904C124.595 174.056 129.193 170.842 132.424 166.681C135.655 162.52 137.369 157.607 137.34 152.584C137.312 147.562 135.542 142.664 132.264 138.531V138.531ZM108.788 158.152C107.581 158.166 106.397 157.867 105.385 157.293C104.374 156.72 103.582 155.897 103.109 154.931C102.636 153.964 102.503 152.896 102.729 151.864C102.954 150.832 103.528 149.881 104.375 149.133C105.223 148.385 106.307 147.873 107.489 147.663C108.672 147.453 109.899 147.554 111.016 147.952C112.132 148.351 113.087 149.03 113.76 149.903C114.432 150.776 114.791 151.803 114.791 152.854C114.791 154.247 114.161 155.584 113.038 156.575C111.914 157.567 110.387 158.133 108.788 158.152Z" fill="white" stroke="#272D2F" stroke-linecap="round" stroke-linejoin="round"/>
<path d="M130.419 140.13C126.758 142.16 126.758 138.681 126.758 138.681C126.32 139.79 125.521 140.763 124.458 141.483C123.396 142.202 122.116 142.637 120.774 142.734C116.12 143.026 116.789 140.13 116.789 140.13C116.465 141.217 115.731 142.179 114.705 142.861C113.68 143.543 112.421 143.905 111.13 143.891C106.476 143.891 108.139 141.869 108.139 141.869C108.139 141.869 103.159 143.026 100.827 140.421C100.347 139.935 100.005 139.357 99.8286 138.734C99.6525 138.111 99.6471 137.461 99.8128 136.836C99.1841 137.578 97.9976 138.187 95.8173 137.233C92.7749 135.918 93.789 132.606 94.4381 131.052C91.6838 132.468 89.2196 134.273 87.1466 136.394C87.674 136.88 87.7754 138.16 86.0108 141.516C82.5425 148.068 79.9261 154.372 83.9826 156.889C88.039 159.406 91.8014 162.69 91.8014 168.739C91.8307 170.586 92.3587 172.401 93.3428 174.037C96.8871 176.052 100.908 177.344 105.106 177.816C109.163 176.05 113.584 174.337 118.432 175.812C118.848 175.936 119.243 176.05 119.639 176.139C123.225 174.835 126.468 172.909 129.171 170.479C130.043 165.278 127.062 159.538 132.913 155.9C134.485 154.92 135.956 154.01 137.345 153.074V152.845C137.365 147.725 135.597 142.721 132.274 138.496C131.792 139.146 131.16 139.702 130.419 140.13ZM108.788 158.152C107.581 158.166 106.397 157.867 105.385 157.293C104.374 156.72 103.582 155.897 103.109 154.931C102.636 153.964 102.504 152.896 102.729 151.864C102.955 150.832 103.528 149.881 104.375 149.133C105.223 148.385 106.307 147.873 107.489 147.663C108.672 147.453 109.899 147.554 111.016 147.953C112.133 148.351 113.088 149.03 113.76 149.903C114.432 150.776 114.791 151.803 114.791 152.854C114.791 154.247 114.161 155.584 113.038 156.575C111.914 157.567 110.387 158.133 108.788 158.152Z" fill="#FE724C" stroke="#272D2F" stroke-width="2" stroke-linecap="round" stroke-linejoin="round"/>
<path d="M126.028 171.441C125.881 171.289 125.695 171.169 125.486 171.089C125.277 171.009 125.049 170.973 124.821 170.982C125.105 170.099 125.501 168.995 125.835 167.971C126.444 166.284 127.133 164.377 127.762 162.311C128.117 161.172 128.644 159.441 127.164 158.779C125.683 158.116 124.324 159.317 121.495 162.09C119.7 163.856 115.583 167.874 114.001 167.776C113.767 166.637 116.12 162.655 117.692 159.997C120.035 156.015 122.458 151.909 122.6 148.942C122.661 147.732 122.215 146.99 121.272 146.734C119.629 146.284 118.513 147.511 114.792 152.633C114.792 152.721 114.792 152.809 114.792 152.889C114.794 153.941 114.436 154.97 113.764 155.844C113.092 156.718 112.137 157.399 111.019 157.798C107.429 162.629 102.835 168.306 100.381 168.492H100.036C99.8553 168.494 99.6746 168.476 99.4988 168.439C98.8802 167.388 102.125 162.417 103.87 159.741C104.417 158.858 104.955 158.072 105.452 157.277C104.627 156.788 103.953 156.129 103.49 155.359C103.026 154.589 102.788 153.732 102.795 152.862C102.795 152.659 102.795 152.456 102.795 152.253C101.983 152.801 101.01 153.489 99.8335 154.346C97.7231 155.97 95.4681 157.447 93.0896 158.761C94.5564 156.496 96.1539 154.298 97.8762 152.174C99.9667 149.617 101.87 146.948 103.576 144.182C104.022 143.549 104.205 142.8 104.093 142.063C103.239 141.95 102.426 141.666 101.72 141.233C100.564 141.789 98.8396 143.511 95.1584 147.194C93.2722 149.065 90.6659 151.662 89.0738 153.048C89.9821 150.879 91.0596 148.767 92.2986 146.726C94.2454 143.295 96.689 140.096 99.5698 137.207C99.6596 137.118 99.7315 137.016 99.7828 136.906C99.1439 137.639 97.9675 138.213 95.8176 137.277L95.6351 137.18C93.2929 139.785 91.2546 142.586 89.5504 145.542C85.3621 152.827 85.139 154.743 86.1836 155.882C86.4811 156.19 86.8782 156.413 87.3231 156.522C87.768 156.63 88.2402 156.62 88.6783 156.492C89.6924 156.271 91.1121 155.132 94.3471 151.988C90.1994 157.375 88.8709 159.52 89.8952 160.977C90.1496 161.309 90.5131 161.567 90.9382 161.717C91.3633 161.866 91.8303 161.901 92.2784 161.816C94.5094 161.551 97.6227 159.414 101.77 156.43L103.079 155.494C102.501 156.43 101.852 157.428 101.182 158.461C97.4706 164.156 95.3308 167.768 96.8926 169.94C97.3692 170.602 98.4036 171.353 100.594 171.194C104.904 170.876 110.015 164.227 116.252 155.573C116.891 154.69 117.58 153.728 118.28 152.827C117.378 154.734 116.12 156.862 114.954 158.849C111.912 164.041 110.208 167.079 111.232 169.03C111.41 169.373 111.676 169.675 112.011 169.912C112.345 170.15 112.738 170.316 113.159 170.399C116.15 171.052 119.578 167.988 123.736 163.909L124.253 163.406C123.797 164.783 123.33 166.055 122.904 167.264C121.302 171.724 120.704 173.392 122.235 174.267C122.532 174.447 122.887 174.543 123.249 174.54H123.564C124.483 174.041 125.374 173.502 126.231 172.924C126.37 172.688 126.424 172.42 126.388 172.156C126.352 171.892 126.227 171.643 126.028 171.441V171.441Z" fill="white" stroke="#272D2F" stroke-linecap="round" stroke-linejoin="round"/>
<path d="M67.7061 180.174C69.353 178.719 71.16 177.409 73.1012 176.262C75.1294 175.291 79.1859 171.185 80.7374 168.642C82.289 166.099 83.4248 163.75 84.5505 165.904C85.1952 167.146 85.491 168.503 85.4134 169.863C85.3358 171.224 84.8871 172.548 84.1043 173.728C82.3093 176.262 77.1374 180.368 75.9914 181.543C74.8455 182.717 72.6144 187.609 72.6144 187.609C71.6171 187.646 70.6245 187.469 69.7244 187.093C68.8242 186.717 68.044 186.155 67.4526 185.454C65.6881 183.114 65.6881 181.94 67.7061 180.174Z" fill="#C2C2C2" stroke="#272D2F" stroke-linecap="round" stroke-linejoin="round"/>
<path d="M80.8796 161.26C80.8796 161.26 66.5907 166.47 64.9276 169.074C63.2645 171.679 56.622 182.39 56.2874 185.578C55.9527 188.766 61.936 190.205 67.2499 203.238C68.122 205.366 65.2217 207 64.2583 208.448C63.2949 209.896 35.6705 231.6 25.0325 239.133C14.3945 246.665 5.09509 258.559 5.09509 265.181C5.09509 271.804 13.4007 280.811 21.7164 281.393C30.0321 281.976 38.3376 277.049 44.3209 267.203C50.3041 257.358 74.8963 221.764 78.2226 217.755C81.5489 213.746 84.2058 210.806 84.5405 206.47C84.7375 203.673 84.7375 200.869 84.5405 198.073C84.5405 198.073 97.5008 182.443 97.5008 180.704C97.5008 178.964 101.496 174.92 100.827 173.472C100.158 172.024 98.5048 172.889 96.8417 174.046C95.1785 175.203 76.8941 186.788 76.8941 186.788C76.8941 186.788 84.2058 176.077 86.2036 174.629C88.2014 173.18 94.5092 168.262 93.5154 167.105C92.5215 165.949 91.1931 166.222 89.1953 167.679C87.1975 169.136 79.5511 173.472 77.5634 175.785C75.5758 178.099 67.9192 182.682 67.9192 182.682C67.9192 182.682 69.2477 175.15 71.2455 172.262C73.2433 169.375 82.5427 166.178 83.8712 163.865C85.1997 161.551 83.212 160.103 80.8796 161.26Z" fill="white" stroke="#272D2F" stroke-width="2" stroke-linecap="round" stroke-linejoin="round"/>
<path d="M60.6177 190.187C61.3732 191.391 62.4095 192.444 63.66 193.278C64.8791 194.074 66.2533 194.673 67.7164 195.044C67.7164 195.044 70.7588 196.81 72.787 198.134C74.207 199.019 75.738 199.759 77.3505 200.342" stroke="#272D2F" stroke-linecap="round" stroke-linejoin="round"/>
<path d="M97.2676 180.033C97.2676 180.033 83.212 190.532 80.5551 192.554Z" fill="white"/>
<path d="M97.2676 180.033C97.2676 180.033 83.212 190.532 80.5551 192.554" stroke="#272D2F" stroke-linecap="round" stroke-linejoin="round"/>
<path d="M158.033 171.132C158.033 171.132 151.391 165.834 148.075 163.821C144.758 161.807 138.309 158.885 136.544 159.565C134.78 160.245 135.53 161.269 136.747 162.117C137.964 162.964 140.803 164.501 144.363 166.532C147.922 168.562 157.84 172.315 157.84 172.315C157.84 172.315 159.798 172.969 158.033 171.132Z" fill="#C2C2C2" stroke="#272D2F" stroke-linecap="round" stroke-linejoin="round"/>
<path d="M132.112 169.657C132.112 169.657 130.459 166.761 132.782 166.47C133.993 166.282 135.232 166.282 136.443 166.47C136.443 166.47 135.956 163.679 136.96 162.814C137.964 161.949 140.448 162.567 142.436 164.306C144.424 166.046 161.035 171.105 161.37 174.576C161.704 178.046 143.116 209.596 143.116 209.596C143.116 209.596 173.366 232.175 182.666 237.384C191.965 242.594 208.921 249.543 210.584 256.811C212.247 264.078 208.921 270.709 200.616 272.44C192.31 274.171 190.312 274.762 180.333 267.813C170.354 260.864 138.755 227 133.137 218.603C127.519 210.205 127.813 210.505 128.482 204.421C129.151 198.338 132.802 186.479 132.802 186.479C130.83 183.88 129.055 181.173 127.488 178.373C125.46 174.611 125.825 172.871 127.488 172.006C128.842 171.41 130.303 171.019 131.808 170.849L132.112 169.657Z" fill="white" stroke="#272D2F" stroke-width="2" stroke-linecap="round" stroke-linejoin="round"/>
<path d="M131.747 203.229L138.055 188.465L129.07 171.105C129.07 171.105 129.405 169.339 132.062 169.657C134.719 169.975 145.529 180.615 147.192 182.063C148.855 183.512 148.024 189.048 145.691 193.675" fill="white"/>
<path d="M131.747 203.229L138.055 188.465L129.07 171.105C129.07 171.105 129.405 169.339 132.062 169.657C134.719 169.975 145.529 180.615 147.192 182.063C148.855 183.512 148.024 189.048 145.691 193.675" stroke="#272D2F" stroke-linecap="round" stroke-linejoin="round"/>
<path d="M136.402 166.47L153.713 174.902C156.451 176.245 157.82 177.887 156.623 181.313" stroke="#272D2F" stroke-linecap="round" stroke-linejoin="round"/>
<path d="M106.09 102.407C106.09 102.617 106.019 102.822 105.885 102.996C105.751 103.17 105.561 103.306 105.339 103.386C105.117 103.466 104.872 103.487 104.636 103.447C104.4 103.406 104.183 103.305 104.013 103.157C103.843 103.008 103.727 102.82 103.68 102.614C103.633 102.408 103.657 102.195 103.749 102.002C103.841 101.808 103.997 101.643 104.197 101.526C104.397 101.41 104.633 101.348 104.873 101.348C105.195 101.35 105.503 101.462 105.731 101.661C105.959 101.859 106.088 102.127 106.09 102.407V102.407Z" fill="#FE724C" stroke="#272D2F" stroke-linecap="round" stroke-linejoin="round"/>
<path d="M98.6567 104.111C98.9927 104.111 99.2651 103.874 99.2651 103.582C99.2651 103.289 98.9927 103.052 98.6567 103.052C98.3206 103.052 98.0482 103.289 98.0482 103.582C98.0482 103.874 98.3206 104.111 98.6567 104.111Z" fill="#FE724C" stroke="#272D2F" stroke-linecap="round" stroke-linejoin="round"/>
<path d="M110.553 333.578C142.373 333.578 168.168 323.791 168.168 311.718C168.168 299.646 142.373 289.859 110.553 289.859C78.7326 289.859 52.9373 299.646 52.9373 311.718C52.9373 323.791 78.7326 333.578 110.553 333.578Z" fill="#272D2F" stroke="#272D2F" stroke-linecap="round" stroke-linejoin="round"/>
<path d="M110.552 330.568C146.296 330.568 175.272 320.781 175.272 308.708C175.272 296.636 146.296 286.849 110.552 286.849C74.8088 286.849 45.8329 296.636 45.8329 308.708C45.8329 320.781 74.8088 330.568 110.552 330.568Z" fill="white" stroke="#272D2F" stroke-width="2" stroke-linecap="round" stroke-linejoin="round"/>
<path d="M110.552 323.03C135.515 323.03 155.752 316.39 155.752 308.199C155.752 300.009 135.515 293.369 110.552 293.369C85.5892 293.369 65.3525 300.009 65.3525 308.199C65.3525 316.39 85.5892 323.03 110.552 323.03Z" fill="white" stroke="#272D2F" stroke-width="2" stroke-linecap="round" stroke-linejoin="round"/>
<path d="M149.943 294.576C151.364 286.889 142.271 279.053 129.633 277.076C116.996 275.099 105.6 279.728 104.18 287.415C102.759 295.103 111.852 302.939 124.489 304.916C137.127 306.893 148.523 302.264 149.943 294.576Z" fill="white" stroke="#272D2F" stroke-width="2" stroke-linecap="round" stroke-linejoin="round"/>
<path d="M132.971 288.165C132.647 289.92 130.11 290.92 127.25 290.473C124.389 290.025 122.386 288.279 122.701 286.559C123.016 284.839 125.562 283.803 128.423 284.242C131.283 284.681 133.286 286.445 132.971 288.165Z" fill="white" stroke="#272D2F" stroke-linecap="round" stroke-linejoin="round"/>
<path d="M90.6702 316.694C103.705 316.694 114.271 310.695 114.271 303.294C114.271 295.893 103.705 289.894 90.6702 289.894C77.6357 289.894 67.0691 295.893 67.0691 303.294C67.0691 310.695 77.6357 316.694 90.6702 316.694Z" fill="white" stroke="#272D2F" stroke-width="2" stroke-linecap="round" stroke-linejoin="round"/>
<path d="M93.4072 304.189C108.048 304.189 119.917 297.364 119.917 288.946C119.917 280.527 108.048 273.703 93.4072 273.703C78.7663 273.703 66.8976 280.527 66.8976 288.946C66.8976 297.364 78.7663 304.189 93.4072 304.189Z" fill="#272D2F" stroke="#272D2F" stroke-linecap="round" stroke-linejoin="round"/>
<path d="M77.1487 287.99L80.8772 287.735" stroke="white" stroke-linecap="round" stroke-linejoin="round"/>
<path d="M75.3557 284.172L77.835 285.444" stroke="white" stroke-linecap="round" stroke-linejoin="round"/>
<path d="M82.6698 282.022L80.1809 282.908" stroke="white" stroke-linecap="round" stroke-linejoin="round"/>
<path d="M76.319 279.732L79.6279 279.862" stroke="white" stroke-linecap="round" stroke-linejoin="round"/>
<path d="M90.8039 278.213L89.5642 279.223" stroke="white" stroke-linecap="round" stroke-linejoin="round"/>
<path d="M83.7664 278.336L87.0848 279.986" stroke="white" stroke-linecap="round" stroke-linejoin="round"/>
<path d="M97.1545 278.213L98.9473 279.609" stroke="white" stroke-linecap="round" stroke-linejoin="round"/>
<path d="M105.289 280.495L101.846 281.259" stroke="white" stroke-linecap="round" stroke-linejoin="round"/>
<path d="M108.598 284.426L111.363 284.813" stroke="white" stroke-linecap="round" stroke-linejoin="round"/>
<path d="M108.741 279.863L112.46 281.89" stroke="white" stroke-linecap="round" stroke-linejoin="round"/>
<path d="M104.736 276.432L101.846 276.554" stroke="white" stroke-linecap="round" stroke-linejoin="round"/>
<path d="M90.5272 275.414H93.8362" stroke="white" stroke-linecap="round" stroke-linejoin="round"/>
<path d="M117.981 286.971L114.395 287.858" stroke="white" stroke-linecap="round" stroke-linejoin="round"/>
<path d="M115.359 282.908L116.466 285.19" stroke="white" stroke-linecap="round" stroke-linejoin="round"/>
<path d="M111.64 288.876L109.017 291.035" stroke="white" stroke-linecap="round" stroke-linejoin="round"/>
<path d="M95.7721 291.035L101.846 291.798" stroke="white" stroke-linecap="round" stroke-linejoin="round"/>
<path d="M103.219 288.112L106.252 287.48" stroke="white" stroke-linecap="round" stroke-linejoin="round"/>
<path d="M83.4897 288.235L87.7713 290.271" stroke="white" stroke-linecap="round" stroke-linejoin="round"/>
<path d="M93.1497 293.193L88.7346 293.825" stroke="white" stroke-linecap="round" stroke-linejoin="round"/>
<path d="M98.528 294.843L99.9106 296.361" stroke="white" stroke-linecap="round" stroke-linejoin="round"/>
<path d="M108.054 292.939L105.155 294.457" stroke="white" stroke-linecap="round" stroke-linejoin="round"/>
<path d="M70.111 286.331L70.7981 287.989" stroke="white" stroke-linecap="round" stroke-linejoin="round"/>
<path d="M115.635 291.289L116.609 292.298" stroke="white" stroke-linecap="round" stroke-linejoin="round"/>
<path d="M98.5372 285.55C98.5372 286.849 96.2486 287.902 93.4165 287.902C90.5844 287.902 88.3053 286.849 88.3053 285.55C88.3053 284.251 90.5939 283.198 93.4165 283.198C96.2391 283.198 98.5372 284.251 98.5372 285.55Z" fill="white" stroke="#272D2F" stroke-linecap="round" stroke-linejoin="round"/>
<path d="M93.4073 304.189C105.508 304.189 115.702 299.529 118.877 293.158C118.075 293.212 117.302 293.46 116.637 293.878C114.272 295.51 114.071 297.502 112.107 296.589C110.143 295.677 108.76 295.51 106.014 297.133C103.267 298.757 101.093 300.758 96.9642 298.581C92.8351 296.405 88.5059 297.133 84.9586 298.95C81.4112 300.767 78.6649 295.326 78.2835 292.246C77.902 289.165 73.7635 292.07 70.2162 291.166C68.5569 290.736 67.5938 289.113 67.0312 287.507C66.9517 287.983 66.9102 288.464 66.9072 288.946C66.8977 297.362 78.8175 304.189 93.4073 304.189Z" fill="white" stroke="#272D2F" stroke-width="2" stroke-linecap="round" stroke-linejoin="round"/>
<path d="M126.668 322.302C140.793 322.302 152.243 315.493 152.243 307.094C152.243 298.695 140.793 291.886 126.668 291.886C112.543 291.886 101.093 298.695 101.093 307.094C101.093 315.493 112.543 322.302 126.668 322.302Z" fill="white" stroke="#272D2F" stroke-linecap="round" stroke-linejoin="round"/>
<path d="M126.668 291.886C112.546 291.886 101.093 298.696 101.093 307.094C101.127 309.43 101.976 311.694 103.515 313.553C104.582 313.859 105.682 314.059 106.796 314.149C110.925 314.518 112.307 310.709 117.028 313.272C121.748 315.834 123.521 318.537 128.041 315.992C132.561 313.447 134.926 311.824 138.464 313.456C142.002 315.088 142.994 313.816 144.567 311.648C146.14 309.481 146.14 309.112 148.896 309.112C151.499 309.112 151.29 306.839 151.929 304.724C150.012 297.467 139.437 291.886 126.668 291.886Z" fill="#FE724C" stroke="#272D2F" stroke-linecap="round" stroke-linejoin="round"/>
<path d="M101.093 307.12C101.093 307.48 101.093 307.84 101.16 308.191C106.099 300.609 113.68 295.484 118.906 292.632C117.876 292.825 116.884 293.053 115.912 293.325C110.053 296.787 105.019 301.307 101.112 306.611C101.103 306.752 101.093 306.918 101.093 307.12Z" fill="white" stroke="#272D2F" stroke-width="0.5" stroke-linecap="round" stroke-linejoin="round"/>
<path d="M114.291 312.385C118.963 300.398 129.548 295.229 136.557 293.079C136.004 292.939 135.441 292.816 134.859 292.702C127.66 295.177 117.695 300.644 113.261 312.429C113.601 312.379 113.947 312.365 114.291 312.385Z" fill="white" stroke="#272D2F" stroke-width="0.5" stroke-linecap="round" stroke-linejoin="round"/>
<path d="M128.632 291.938C127.984 291.938 127.326 291.886 126.668 291.886H126.029C113.547 296.572 106.7 305.541 103.029 312.886C103.181 313.108 103.343 313.327 103.515 313.544L103.715 313.596C107.472 305.927 114.786 296.309 128.632 291.938Z" fill="white" stroke="#272D2F" stroke-width="0.5" stroke-linecap="round" stroke-linejoin="round"/>
<path d="M151.671 303.97C151.576 303.701 151.471 303.428 151.356 303.154C145.396 305.023 140.609 308.805 136.919 312.912C137.245 312.981 137.564 313.075 137.873 313.193C141.449 309.296 146.026 305.742 151.671 303.97Z" fill="white" stroke="#272D2F" stroke-width="0.5" stroke-linecap="round" stroke-linejoin="round"/>
<path d="M145.139 296.589C144.786 296.37 144.424 296.168 144.052 295.958C133.429 298.678 125.209 304.952 119.497 314.711L120.289 315.211C126.029 305.365 134.344 299.126 145.139 296.589Z" fill="white" stroke="#272D2F" stroke-width="0.5" stroke-linecap="round" stroke-linejoin="round"/>
<path d="M148.591 299.292C148.362 299.064 148.143 298.836 147.895 298.617C139.706 301.887 133.053 307.736 129.128 315.114C129.071 315.229 129.023 315.334 128.966 315.439L130.501 314.562C134.448 307.712 140.835 302.321 148.591 299.292V299.292Z" fill="white" stroke="#272D2F" stroke-width="0.5" stroke-linecap="round" stroke-linejoin="round"/>
<path d="M131.98 302.39C131.98 303.382 129.557 304.198 126.563 304.198C123.569 304.198 121.156 303.382 121.156 302.39C121.156 301.398 123.578 300.574 126.563 300.574C129.548 300.574 131.98 301.39 131.98 302.39Z" fill="white" stroke="#272D2F" stroke-linecap="round" stroke-linejoin="round"/>
</svg>
